HIERARCHY
ROOT joint_Root
{
	OFFSET 0.0 0.0 0.0
	CHANNELS 6 Xposition Yposition Zposition Zrotation Xrotation Yrotation 
	JOINT Hips
	{
		OFFSET -0.726466 93.3139 -2.00062
		CHANNELS 6 Xposition Yposition Zposition Zrotation Xrotation Yrotation 
		JOINT Spine
		{
			OFFSET 15.7357 0.0 0.0
			CHANNELS 6 Xposition Yposition Zposition Zrotation Xrotation Yrotation 
			JOINT Chest
			{
				OFFSET 8.98455 -0.406207 0.0
				CHANNELS 6 Xposition Yposition Zposition Zrotation Xrotation Yrotation 
				JOINT Neck
				{
					OFFSET 16.3773 0.0 0.0
					CHANNELS 6 Xposition Yposition Zposition Zrotation Xrotation Yrotation 
					JOINT Head
					{
						OFFSET 6.45672 0.0 0.0
						CHANNELS 6 Xposition Yposition Zposition Zrotation Xrotation Yrotation 
						End Site
						{
							OFFSET 0.0 0.0 0.0
						}
					}
				}
				JOINT Shoulder_L
				{
					OFFSET 12.9942 -0.242716 4.98039
					CHANNELS 6 Xposition Yposition Zposition Zrotation Xrotation Yrotation 
					JOINT UpperArm_L
					{
						OFFSET 5.34809 0.0 0.0
						CHANNELS 6 Xposition Yposition Zposition Zrotation Xrotation Yrotation 
						JOINT LowerArm_L
						{
							OFFSET 24.3286 1.87007e-05 0.0
							CHANNELS 6 Xposition Yposition Zposition Zrotation Xrotation Yrotation 
							JOINT Hand_L
							{
								OFFSET 22.2916 0.0 0.0
								CHANNELS 6 Xposition Yposition Zposition Zrotation Xrotation Yrotation 
								End Site
								{
									OFFSET 0.0 0.0 0.0
								}
							}
						}
					}
				}
				JOINT Shoulder_R
				{
					OFFSET 12.9945 -0.242716 -4.98039
					CHANNELS 6 Xposition Yposition Zposition Zrotation Xrotation Yrotation 
					JOINT UpperArm_R
					{
						OFFSET -5.34813 0.0 0.0
						CHANNELS 6 Xposition Yposition Zposition Zrotation Xrotation Yrotation 
						JOINT LowerArm_R
						{
							OFFSET -24.3289 0.000322201 0.0
							CHANNELS 6 Xposition Yposition Zposition Zrotation Xrotation Yrotation 
							JOINT Hand_R
							{
								OFFSET -22.2915 -0.000108084 0.0
								CHANNELS 6 Xposition Yposition Zposition Zrotation Xrotation Yrotation 
								End Site
								{
									OFFSET 0.0 0.0 0.0
								}
							}
						}
					}
				}
			}
		}
		JOINT UpperLeg_L
		{
			OFFSET -2.19248 -6.46944 0.0
			CHANNELS 6 Xposition Yposition Zposition Zrotation Xrotation Yrotation 
			JOINT LowerLeg_L
			{
				OFFSET 39.0811 0.0 -1.23785e-05
				CHANNELS 6 Xposition Yposition Zposition Zrotation Xrotation Yrotation 
				JOINT Foot_L
				{
					OFFSET 40.9854 0.0 -1.26872e-05
					CHANNELS 6 Xposition Yposition Zposition Zrotation Xrotation Yrotation 
					JOINT Toes_L
					{
						OFFSET 11.7543 0.0 0.0
						CHANNELS 6 Xposition Yposition Zposition Zrotation Xrotation Yrotation 
						End Site
						{
							OFFSET 0.0 0.0 0.0
						}
					}
				}
			}
		}
		JOINT UpperLeg_R
		{
			OFFSET -2.19251 6.46944 0.0
			CHANNELS 6 Xposition Yposition Zposition Zrotation Xrotation Yrotation 
			JOINT LowerLeg_R
			{
				OFFSET -39.0811 -0.00228153 -0.0401928
				CHANNELS 6 Xposition Yposition Zposition Zrotation Xrotation Yrotation 
				JOINT Foot_R
				{
					OFFSET -40.9854 0.0 0.0
					CHANNELS 6 Xposition Yposition Zposition Zrotation Xrotation Yrotation 
					JOINT Toes_R
					{
						OFFSET -11.7543 0.0 0.0
						CHANNELS 6 Xposition Yposition Zposition Zrotation Xrotation Yrotation 
						End Site
						{
							OFFSET 0.0 0.0 0.0
						}
					}
				}
			}
		}
	}
}
MOTION
Frames:	4
Frame Time:	0.0333333
0.000000 0.000000 0.000000 0.000000 0.000000 -0.000000 -1.378620 92.217800 -2.253590 87.162600 -1.967680 1.073170 15.735700 0.000005 -0.000001 81.843400 86.198300 -81.513900 8.984550 -0.406207 -0.000000 -0.236200 -1.101510 0.656245 16.377300 -0.000001 -0.000001 1.766110 -0.796128 -1.178010 6.456720 -0.000001 -0.000000 0.260654 -0.004732 3.512410 12.994200 -0.242716 4.980390 -89.622000 -1.065570 -70.467700 5.348090 -0.000007 -0.000001 -68.476700 34.139600 -13.853100 24.328600 0.000019 0.000005 2.332990 4.922450 -25.401200 22.291600 -0.000001 0.000005 4.053260 5.589500 -10.734400 12.994500 -0.242716 -4.980390 87.531100 6.630990 -69.524600 -5.348130 -0.000001 -0.000004 -65.709500 31.606000 -12.671000 -24.328900 0.000322 -0.000009 -0.078901 -0.174138 -24.099600 -22.291500 -0.000108 -0.000004 13.111800 5.642520 -14.337600 -2.192480 -6.469440 -0.000000 -168.010000 -16.457500 -4.466570 39.081100 -0.000007 -0.000012 -0.167446 0.463684 19.855900 40.985400 -0.000006 -0.000013 -7.051950 2.965910 -62.054400 11.754300 -0.000000 0.000003 -0.000080 -0.000848 -16.610300 -2.192510 6.469440 -0.000001 175.971000 20.520800 176.794000 -39.081100 -0.002282 -0.040193 -0.052137 0.171712 17.900400 -40.985400 0.000008 0.000006 -3.596070 4.181790 -61.711400 -11.754300 -0.000006 -0.000006 -0.005228 -0.063654 -19.163200
0.000000 0.000000 0.000000 0.000000 0.000000 -0.000000 -1.376840 92.221500 -2.264600 87.169200 -2.062050 1.127910 15.735700 0.000005 -0.000001 81.854900 86.135300 -81.531100 8.984550 -0.406207 -0.000000 -0.111281 -1.117090 0.646168 16.377300 -0.000001 -0.000001 1.773860 -0.826504 -1.131130 6.456720 -0.000001 -0.000000 0.214404 -0.029226 3.531360 12.994200 -0.242716 4.980390 -89.678400 -0.900171 -70.339000 5.348090 -0.000007 -0.000001 -68.585700 32.425400 -13.636700 24.328600 0.000019 0.000005 1.646070 3.198330 -27.262300 22.291600 -0.000001 0.000005 4.046310 5.592210 -10.886900 12.994500 -0.242716 -4.980390 87.573900 6.515950 -69.526600 -5.348130 -0.000001 -0.000004 -65.044800 33.404500 -12.585300 -24.328900 0.000322 -0.000009 -0.076777 -0.156735 -25.737000 -22.291500 -0.000108 -0.000004 13.460200 5.645060 -14.560700 -2.192480 -6.469440 -0.000000 -168.008000 -16.432900 -4.381380 39.081100 -0.000007 -0.000012 -0.165716 0.459678 19.824700 40.985400 -0.000006 -0.000013 -7.066870 2.863190 -62.049200 11.754300 -0.000000 0.000003 -0.000090 -0.000944 -16.613800 -2.192510 6.469440 -0.000001 175.966000 20.408100 176.828000 -39.081100 -0.002282 -0.040193 -0.049302 0.162894 17.904500 -40.985400 0.000008 0.000006 -3.566320 4.146460 -61.706400 -11.754300 -0.000006 -0.000006 -0.005639 -0.067517 -19.320700
0.000000 0.000000 0.000000 0.000000 0.000000 -0.000000 -1.373940 92.217400 -2.269980 87.179000 -2.165300 1.247750 15.735700 0.000005 -0.000001 82.735400 86.068400 -82.414200 8.984550 -0.406207 -0.000000 0.037015 -1.015710 0.642351 16.377300 -0.000001 -0.000001 1.887550 -0.862383 -1.089330 6.456720 -0.000001 -0.000000 0.166674 -0.196612 3.516350 12.994200 -0.242716 4.980390 -89.729100 -0.754789 -70.257700 5.348090 -0.000007 -0.000001 -68.040900 31.021300 -14.081500 24.328600 0.000019 0.000005 0.500140 0.869430 -29.979100 22.291600 -0.000001 0.000005 4.132100 5.597010 -11.163400 12.994500 -0.242716 -4.980390 87.653700 6.301450 -69.529300 -5.348130 -0.000001 -0.000004 -64.165100 35.836400 -12.159000 -24.328900 0.000322 -0.000009 -0.278927 -0.514898 -28.356200 -22.291500 -0.000108 -0.000004 13.938800 5.647140 -14.746900 -2.192480 -6.469440 -0.000000 -167.991000 -16.469200 -4.257630 39.081100 -0.000007 -0.000012 -0.165243 0.457338 19.865800 40.985400 -0.000006 -0.000013 -7.070600 2.780020 -62.077900 11.754300 -0.000000 0.000003 -0.000082 -0.000867 -16.611000 -2.192510 6.469440 -0.000001 175.915000 20.244100 176.913000 -39.081100 -0.002282 -0.040193 -0.050860 0.167396 17.936500 -40.985400 0.000008 0.000006 -3.620820 4.129290 -61.704700 -11.754300 -0.000006 -0.000006 -0.005421 -0.065484 -19.237800
0.000000 0.000000 0.000000 0.000000 0.000000 -0.000000 -1.385130 92.216200 -2.315980 87.160000 -2.140710 1.279050 15.735700 0.000005 -0.000001 83.349600 86.035100 -83.014000 8.984550 -0.406207 -0.000000 0.113284 -0.940506 0.671694 16.377300 -0.000001 -0.000001 2.023550 -0.854566 -1.086330 6.456720 -0.000001 -0.000000 0.257684 -0.331350 3.524100 12.994200 -0.242716 4.980390 -89.808600 -0.529732 -70.131500 5.348090 -0.000007 -0.000001 -66.351400 30.148500 -15.727100 24.328600 0.000019 0.000005 -0.308952 -0.474060 -33.099300 22.291600 -0.000001 0.000005 4.468770 5.607840 -11.819600 12.994500 -0.242716 -4.980390 87.776900 5.989860 -69.594600 -5.348130 -0.000001 -0.000004 -63.172300 38.574500 -11.412400 -24.328900 0.000322 -0.000009 -0.552849 -0.887609 -31.860400 -22.291500 -0.000108 -0.000004 14.282500 5.649050 -14.926100 -2.192480 -6.469440 -0.000000 -167.967000 -16.383400 -4.286520 39.081100 -0.000007 -0.000012 -0.165214 0.456354 19.902100 40.985400 -0.000006 -0.000013 -7.074760 2.769630 -62.066600 11.754300 -0.000000 0.000003 -0.000090 -0.000941 -16.613700 -2.192510 6.469440 -0.000001 175.944000 20.224200 176.903000 -39.081100 -0.002282 -0.040193 -0.051584 0.169333 17.966300 -40.985400 0.000008 0.000006 -3.596660 4.076360 -61.700400 -11.754300 -0.000006 -0.000006 -0.005378 -0.065081 -19.221300
